<svg xmlns="http://www.w3.org/2000/svg" viewBox="0 0 320 200" width="320" height="200">
<rect width="100%" height="100%" fill="#0b0f26"/>
<rect x="37" y="50" width="32" height="32" rx="6" fill="#00FFA3"/>
<polygon points="106,48 88,84 124,84" fill="#B967FF"/>
<polygon points="159,48 141,84 177,84" fill="#7AA2FF"/>
<polygon points="212,48 194,84 230,84" fill="#F9FF4D"/>
<polygon points="265,48 247,84 283,84" fill="#00E5FF"/>
<polygon points="53,114 35,150 71,150" fill="#00FFA3"/>
<polygon points="106,114 88,150 124,150" fill="#00E5FF"/>
<polygon points="159,114 141,150 177,150" fill="#7AA2FF"/>
<polygon points="212,114 194,150 230,150" fill="#B967FF"/>
<polygon points="265,114 247,150 283,150" fill="#7AA2FF"/>
</svg>